USFL
nRows=237
nColumns=2
inDegrees=yes
endheader
time	tib_ant_r	
3.42641	 71.921764	
3.45968	 71.915648	
3.49294	 71.915232	
3.52621	 71.914502	
3.55948	 71.935759	
3.59274	 71.929938	
3.62601	 71.928416	
3.65927	 71.968808	
3.69254	 71.986943	
3.72581	 71.955994	
3.75907	 71.956367	
3.79234	 71.961074	
3.8256	 71.999274	
3.85887	 71.966017	
3.89214	 71.972676	
3.9254	 71.959986	
3.95867	 71.971681	
3.99194	 71.987714	
4.0252	 72.012460	
4.05847	 72.013666	
4.09173	 72.025048	
4.125	 72.008376	
4.15827	 71.992791	
4.19153	 72.004097	
4.2248	 71.988429	
4.25806	 71.977292	
4.29133	 71.992144	
4.3246	 71.987023	
4.35786	 72.028992	
4.39113	 72.007892	
4.4244	 72.021270	
4.45766	 72.064453	
4.49093	 72.058018	
4.52419	 72.045020	
4.55746	 72.043800	
4.59073	 72.024896	
4.62399	 72.031888	
4.65726	 72.018083	
4.69052	 72.005067	
4.72379	 72.016353	
4.75706	 72.061778	
4.79032	 72.044731	
4.82359	 72.020101	
4.85685	 72.051878	
4.89012	 72.080751	
4.92339	 72.346164	
4.95665	 72.381779	
4.98992	 72.170368	
5.02319	 72.022727	
5.05645	 71.862941	
5.08972	 71.174007	
5.12298	 70.602738	
5.15625	 69.877363	
5.18952	 69.327552	
5.22278	 69.227481	
5.25605	 68.686866	
5.28931	 68.821012	
5.32258	 68.308752	
5.35585	 68.136106	
5.38911	 68.371640	
5.42238	 67.835229	
5.45565	 67.478705	
5.48891	 67.523464	
5.52218	 67.178406	
5.55544	 66.968423	
5.58871	 66.875770	
5.62198	 66.641029	
5.65524	 66.537838	
5.68851	 66.308258	
5.72177	 66.151644	
5.75504	 66.212578	
5.78831	 65.994491	
5.82157	 65.772826	
5.85484	 65.768447	
5.8881	 65.583068	
5.92137	 65.405204	
5.95464	 65.339239	
5.9879	 65.238220	
6.02117	 65.069094	
6.05444	 64.846553	
6.0877	 64.691838	
6.12097	 64.611711	
6.15423	 64.610867	
6.1875	 64.615524	
6.22077	 64.602119	
6.25403	 64.569869	
6.2873	 64.547052	
6.32056	 64.566469	
6.35383	 64.531793	
6.3871	 64.511375	
6.42036	 64.484552	
6.45363	 64.411438	
6.4869	 64.397456	
6.52016	 64.300563	
6.55343	 64.273701	
6.58669	 64.254631	
6.61996	 64.216399	
6.65323	 64.181396	
6.68649	 64.192529	
6.71976	 64.181295	
6.75302	 64.125496	
6.78629	 64.078183	
6.81956	 64.085553	
6.85282	 64.030632	
6.88609	 63.972508	
6.91935	 63.939869	
6.95262	 63.979021	
6.98589	 63.950869	
7.01915	 63.943029	
7.05242	 63.900513	
7.08569	 63.887823	
7.11895	 63.878514	
7.15222	 63.911459	
7.18548	 63.946677	
7.21875	 63.901736	
7.25202	 63.850071	
7.28528	 63.800667	
7.31855	 63.812721	
7.35181	 63.788575	
7.38508	 63.726162	
7.41835	 63.700313	
7.45161	 63.663483	
7.48488	 63.601486	
7.51815	 63.651606	
7.55141	 63.631878	
7.58468	 63.580494	
7.61794	 63.557589	
7.65121	 63.577463	
7.68448	 63.545184	
7.71774	 63.555269	
7.75101	 63.506507	
7.78427	 63.458252	
7.81754	 63.495044	
7.85081	 63.545231	
7.88407	 63.539963	
7.91734	 63.458236	
7.9506	 63.416319	
7.98387	 63.422869	
8.01714	 63.410929	
8.0504	 63.364933	
8.08367	 63.385941	
8.11694	 63.373893	
8.1502	 63.336482	
8.18347	 63.383851	
8.21673	 63.429221	
8.25	 63.473885	
8.28327	 63.476366	
8.31653	 63.463323	
8.3498	 63.487678	
8.38306	 63.474364	
8.41633	 63.476566	
8.4496	 63.515759	
8.48286	 63.523019	
8.51613	 63.523399	
8.5494	 63.521310	
8.58266	 63.512905	
8.61593	 63.514478	
8.64919	 63.520601	
8.68246	 63.566906	
8.71573	 63.630423	
8.74899	 63.768579	
8.78226	 63.779440	
8.81552	 63.864823	
8.84879	 64.004678	
8.88206	 64.010079	
8.91532	 63.981505	
8.94859	 63.971439	
8.98185	 63.979517	
9.01512	 63.806698	
9.04839	 63.792877	
9.08165	 63.698513	
9.11492	 63.572680	
9.14819	 63.544707	
9.18145	 63.488355	
9.21472	 63.519705	
9.24798	 63.516408	
9.28125	 63.466889	
9.31452	 63.410301	
9.34778	 63.396196	
9.38105	 63.404100	
9.41431	 63.435581	
9.44758	 63.404563	
9.48085	 63.399640	
9.51411	 63.403821	
9.54738	 63.388745	
9.58065	 63.394281	
9.61391	 63.391802	
9.64718	 63.402213	
9.68044	 63.382817	
9.71371	 63.429245	
9.74698	 63.459042	
9.78024	 63.548823	
9.81351	 63.567512	
9.84677	 63.699610	
9.88004	 63.689394	
9.91331	 63.667247	
9.94657	 63.615989	
9.97984	 63.609883	
10.0131	 63.663959	
10.0464	 63.703693	
10.0796	 63.721492	
10.1129	 64.095016	
10.1462	 64.157519	
10.1794	 64.597045	
10.2127	 64.965519	
10.246	 64.743345	
10.2792	 65.049987	
10.3125	 65.217119	
10.3458	 65.338591	
10.379	 65.864780	
10.4123	 66.333795	
10.4456	 66.728152	
10.4788	 67.271976	
10.5121	 67.749423	
10.5454	 68.670093	
10.5786	 69.148296	
10.6119	 69.304596	
10.6452	 69.181010	
10.6784	 69.475376	
10.7117	 69.531565	
10.745	 69.362239	
10.7782	 69.293714	
10.8115	 69.311070	
10.8448	 69.235360	
10.878	 69.192839	
10.9113	 69.136501	
10.9446	 69.107434	
10.9778	 69.126962	
11.0111	 69.102330	
11.0444	 69.035980	
11.0776	 69.102976	
11.1109	 69.091591	
11.1442	 69.106325	
11.1774	 69.159227	
11.2107	 69.101943	
11.244	 69.158918	
11.2772	 69.136458	
